<?xml version="1.0"?>
<svg xmlns="http://www.w3.org/2000/svg" xmlns:xlink="http://www.w3.org/1999/xlink" xmlns:svgjs="http://svgjs.com/svgjs" version="1.1" width="512" height="512" x="0" y="0" viewBox="0 0 335.412 335.412" style="enable-background:new 0 0 512 512" xml:space="preserve" class=""><g>
<g xmlns="http://www.w3.org/2000/svg">
	<polygon style="" points="266.971,97.176 209.502,97.176 209.502,230.922 125.91,230.922 125.91,97.176    68.441,97.176 167.706,0  " fill="#3c098c" data-original="#00efd1" class=""/>
	<g>
		<path style="" d="M209.502,272.718H125.91c-5.771,0-10.449-4.678-10.449-10.449s4.678-10.449,10.449-10.449h83.592    c5.771,0,10.449,4.678,10.449,10.449S215.273,272.718,209.502,272.718z" fill="#ff0e3b" data-original="#00acea" class=""/>
		<path style="" d="M209.502,304.065H125.91c-5.771,0-10.449-4.678-10.449-10.449c0-5.771,4.678-10.449,10.449-10.449    h83.592c5.771,0,10.449,4.678,10.449,10.449C219.951,299.387,215.273,304.065,209.502,304.065z" fill="#ff0e3b" data-original="#00acea" class=""/>
		<path style="" d="M209.502,335.412H125.91c-5.771,0-10.449-4.678-10.449-10.449s4.678-10.449,10.449-10.449h83.592    c5.771,0,10.449,4.678,10.449,10.449S215.273,335.412,209.502,335.412z" fill="#ff0e3b" data-original="#00acea" class=""/>
	</g>
</g>
<g xmlns="http://www.w3.org/2000/svg">
</g>
<g xmlns="http://www.w3.org/2000/svg">
</g>
<g xmlns="http://www.w3.org/2000/svg">
</g>
<g xmlns="http://www.w3.org/2000/svg">
</g>
<g xmlns="http://www.w3.org/2000/svg">
</g>
<g xmlns="http://www.w3.org/2000/svg">
</g>
<g xmlns="http://www.w3.org/2000/svg">
</g>
<g xmlns="http://www.w3.org/2000/svg">
</g>
<g xmlns="http://www.w3.org/2000/svg">
</g>
<g xmlns="http://www.w3.org/2000/svg">
</g>
<g xmlns="http://www.w3.org/2000/svg">
</g>
<g xmlns="http://www.w3.org/2000/svg">
</g>
<g xmlns="http://www.w3.org/2000/svg">
</g>
<g xmlns="http://www.w3.org/2000/svg">
</g>
<g xmlns="http://www.w3.org/2000/svg">
</g>
</g></svg>
